<?xml version="1.0" encoding="UTF-8"?><svg xmlns="http://www.w3.org/2000/svg" xmlns:xlink="http://www.w3.org/1999/xlink" viewBox="0 0 1409.26 1417.13"><defs><style>.f{opacity:.85;}.g,.h,.i,.j{fill:#fff;}.k{stroke-width:6px;}.k,.h,.j,.l{stroke-miterlimit:10;}.k,.h,.j,.l,.m{stroke:#002262;}.k,.n,.o,.m,.p,.q,.r{fill:none;}.s,.t{fill:#002262;}.i,.t,.n,.m{fill-rule:evenodd;}.j,.l{stroke-width:5px;}.u{opacity:.45;}.n{stroke-width:.5px;}.n,.o,.m,.p,.q,.r{stroke-linejoin:round;}.n,.m,.q,.r{stroke-linecap:round;}.n,.q{stroke:#e6e7e8;}.o{stroke-width:2.09px;}.o,.p,.r{stroke:#fff;}.v{filter:url(#d);}.l{fill:#002760;}.m{stroke-width:1.79px;}.p{stroke-width:2.68px;}.q,.r{stroke-width:3px;}</style><filter id="d" filterUnits="userSpaceOnUse"><feOffset dx="-2" dy="3"/><feGaussianBlur result="e" stdDeviation="3"/><feFlood flood-color="#000" flood-opacity=".81"/><feComposite in2="e" operator="in"/><feComposite in="SourceGraphic"/></filter></defs><g id="a"/><g id="b"><g id="c"><g class="v"><path class="s" d="M1389.96,357.4c1.47-8.53,2.86-16.56,4.18-24.07l4.15-23.46-22.77-7.02c-248.99-76.71-412.28-151-505.42-199.82-100.87-52.88-143.43-88.06-143.8-88.38l-17.38-14.65-17.38,14.65c-1.65,1.39-170.58,140.75-649.22,288.2l-22.77,7.02,4.15,23.46c1.33,7.51,2.71,15.55,4.18,24.07,10.51,60.96,25.02,145.06,52.58,242H23.27v438.39l35.03-10.95c53.74-16.79,119.1-31.17,192.51-42.75,111.1,173.81,260.05,316.35,444.4,424.96l13.7,8.07,13.7-8.07c184.35-108.61,333.3-251.15,444.4-424.96,73.41,11.57,138.77,25.95,192.52,42.75l35.03,10.95v-438.39h-57.18c27.57-96.94,42.07-181.04,52.58-242Zm-681.05,996.99c-181.73-109.85-309.18-243.17-399.59-378.7,6.54-.85,13.13-1.68,19.77-2.49,87.9,126.73,209.58,250.61,379.82,353.51,170.23-102.9,291.92-226.79,379.82-353.51,6.64,.81,13.23,1.64,19.77,2.49-90.41,135.53-217.86,268.85-399.59,378.7Zm631.68-701.02l-3,302.77c-42.41-11.53-87.67-12.9-140.29-21.82-18.48-3.14-37.49-6.1-56.99-8.86-17.43-2.47-35.25-4.79-53.4-6.95-117.63-14-244.81-21.1-378-21.1s-260.37,7.1-378,21.1c-18.15,2.16-35.96,4.48-53.4,6.95-19.5,2.76-38.51,5.72-56.99,8.86-52.63,8.93-100.88,19.3-143.29,30.82v-311.77H1340.59Zm-1204.07-53.97c-29.49-100.47-44.64-188.32-55.48-251.17-.05-.29-.1-.58-.15-.87,242.07-75.99,402.22-149.32,494.79-198.07,69.01-36.34,111.63-64.63,133.23-80.16,21.59,15.53,64.22,43.82,133.23,80.16,92.57,48.74,252.73,122.07,494.79,198.07-.05,.29-.1,.58-.15,.87-10.84,62.85-25.99,150.7-55.48,251.17H136.52Z"/><path class="g" d="M785.19,979.64l-133.6,119.55c-7.28,5.09,34.87,67.51,43.61,69.1l234.52-9.42-144.53-179.24Z"/><polygon class="g" points="591.78 993.31 491.74 1162.25 788.54 1202.61 591.78 993.31"/></g><g><path class="l" d="M88.24,920.26c.02-83.87,.02-167.73,0-251.6,11.13-.14,22.25-.25,33.38-.33,12.27,9.31,24.05,19.02,35.67,29.13,7.44,16.79,14.44,33.73,21.27,50.77-.19-26.65-.4-53.3-.88-79.95,10.62,.04,21.23,.11,31.85,.2,7.74,9.41,14.99,19.22,21.97,29.2,1.48,74,1.97,148.07,1.14,222.08-11.12,1.88-22.22,3.83-33.32,5.85-7.29-7.66-13.83-15.88-20.38-24.17-12.89-27.2-24.04-55.05-34.86-83.12,0,39.51,0,79.03-.25,118.54-11.42,2.51-22.81,5.14-34.18,7.88-7.78-7.63-14.59-16.01-21.43-24.48Zm31.05-10.93c.12-55.94,.12-111.88,.04-167.82,20.23,52.01,38.61,104.83,62.22,155.45,10.94-1.99,16.38-2.94,27.25-4.75,.25-73.1,.21-146.25-1.57-219.34-10.36-.07-15.54-.1-25.97-.13,.88,50.29,1.05,100.59,1.15,150.88-19.84-50.54-37.72-102.2-62.27-150.72-9.4,.08-18.8,.19-28.2,.34,.05,80.73,.04,161.46,0,242.19,9.1-2.11,18.22-4.15,27.35-6.11Z"/><path class="l" d="M278.68,885.55c-14.61-72.2-25.06-145.47-43.59-216.82,11.77,.13,23.53,.27,35.3,.41,9.1,8.65,17.85,17.66,26.39,26.86,3.11,14.79,6.03,29.6,8.82,44.46,3.62-23.61,7.24-47.22,11.39-70.75,14.19,.16,28.38,.3,42.56,.43,9.54,8.53,18.82,17.36,27.94,26.33,3.46,14.38,6.7,28.78,9.8,43.24,3.92-23.12,7.82-46.23,12.02-69.3,13.16,.03,26.31,.03,39.47-.02,7.15,8.86,14.13,17.79,21.02,26.85-16.23,66.72-30.56,133.97-49.28,200.06-10.27,.83-20.53,1.72-30.78,2.67-6.84-8.13-13.41-16.46-19.96-24.82-5.67-28.57-11.19-57.18-16.87-85.75-7.25,39.08-14.32,78.34-24.15,116.88-10,1.16-20,2.39-29.98,3.7-7.04-7.88-13.57-16.14-20.09-24.44Zm31.31-7.75c11.27-55.09,20.25-110.6,30.11-165.95,12.21,52.79,22.16,106.05,32.58,159.21,9.75-.95,19.5-1.84,29.26-2.7,15.51-64.27,28.27-129.17,43.19-193.58-10.87,.01-21.74,0-32.61-.02-8.5,47.48-16.24,95.1-24.68,142.59-8.71-47.91-17.67-95.81-30.12-142.92-12.58-.11-25.16-.24-37.74-.39-8.74,50.01-15.82,100.31-23.87,150.43-8.22-50.44-15.72-101.26-27.49-151.03-9.58-.11-19.17-.22-28.75-.31,17.72,68.5,27.8,138.9,41.69,208.22,9.47-1.25,18.95-2.44,28.44-3.57Z"/><path class="l" d="M520.15,863.16c23.06-64.35,43.89-129.48,67.49-193.64,14.3,0,28.59,.04,42.89,.08,9.25,8.29,18.31,16.79,27.24,25.43,15.62,63.08,26.99,127.13,42.87,190.15-14.69,.16-29.37,.37-44.06,.64-8.32-8.21-16.4-16.65-24.29-25.27-.72-3.81-1.08-5.73-1.79-9.61-15.76,.3-31.52,.68-47.27,1.11-4.6,12.19-9.35,24.32-14.31,36.38-11.07,.45-22.14,.93-33.21,1.44-5.33-8.81-10.5-17.73-15.55-26.71Zm34.4-4.25c4.7-12.73,9.27-25.51,13.75-38.32,20.23-.51,40.47-.89,60.71-1.21,2.2,12.46,4.42,24.91,6.71,37.35,11.04-.2,22.09-.37,33.13-.52-13.2-60.83-24.21-122.17-40.45-182.3-12.72-.03-25.45-.05-38.17-.04-22.66,61.75-43,124.31-65.35,186.17,9.89-.41,19.78-.79,29.67-1.13Zm52.94-153.37c6.33,26.9,11.95,53.93,17.34,81.02-15.51,.2-31.02,.43-46.53,.7,9.74-27.24,19.38-54.51,29.19-81.72Zm12.23,76.08c-1.87-9.49-2.82-14.25-4.75-23.69-3.33,9.49-5.01,14.28-8.4,23.86,5.25-.07,7.88-.11,13.16-.17Z"/><path class="l" d="M730.66,866.54c-6.88-8.44-10.28-12.78-17.03-21.6-14.55-19.38-14.79-44.63-13.86-67.71,2.49-35.73,4.65-71.47,6.12-107.26,11.87,.06,23.74,.12,35.61,.17,7.48,8.44,14.81,16.95,22.06,25.58-1.26,35.57-3.04,71.11-5.01,106.64-.39,6.87-.21,13.15,.66,18.71,1.71,.42,3.54,.56,5.47,.59,24.15,.38,31-27.13,31.59-46.42,1.42-34.97,2.78-69.96,3.19-104.97,11.51-.01,23.02-.04,34.52-.09,7.1,8.49,13.99,17.06,20.8,25.79-.55,34.96-1.54,69.91-2.56,104.86-1.14,43.17-21.41,87.86-70.46,87.35-18.79-.2-39.23-5.89-51.11-21.64Zm98.32-88.35c1.12-34.57,2.12-69.13,2.48-103.72-9.46,.04-18.91,.05-28.37,.06-.55,33.6-1.71,67.18-3.04,100.76-.37,22.29-9.65,51.26-35.63,51.23-26.3-.03-31.81-29.84-30.55-51.32,2-33.59,3.75-67.19,4.91-100.82-9.76-.04-19.51-.08-29.27-.13-1.46,34.36-3.51,68.67-5.86,102.98-3.11,42.05,10.37,82.71,58.62,83.15,48.35,.43,65.44-39.26,66.71-82.19Z"/><path class="l" d="M899.01,863.61c.69-41.47,1.94-82.93,2.97-124.39-7.86-.09-9.8-.11-16.28-.18-6.59-9.63-13.27-19.15-20.09-28.62,.21-13.49,.4-26.99,.41-40.48,38.86-.46,77.7-1.24,116.56-1.24,7.4,9.01,14.52,18.1,21.54,27.41,0,15.2-.06,30.4-.16,45.6-12.88-.48-25.77-.9-38.65-1.25-1.05,51.44-2.49,102.89-2.74,154.34-13.23-1.07-26.46-2.11-39.69-3.1-8.12-9.22-16.04-18.62-23.88-28.08Zm36.32-.71c.98-51.95,2.7-103.87,3.76-155.82,13.57,.06,27.15,.2,40.72,.41,.1-11.45,.17-22.89,.2-34.34-36.82-.03-73.61,.64-110.42,1.05-.03,10.97-.19,21.94-.34,32.91,12.57,0,25.14,0,37.71-.06-1.04,51.19-2.77,102.37-3.7,153.57,10.7,.74,21.39,1.48,32.09,2.27Z"/><path class="l" d="M1046.21,872.01c-5.79-7.68-8.66-11.62-14.36-19.58-17.54-24.4-24.59-54.03-24.36-82.47,.33-40.1,20.29-103.95,72.45-103.51,22.9,.19,40.87,16.05,54.64,32.74,5.97,8.2,8.97,12.46,15.03,21.19,19.02,27.61,29.63,60.36,30.59,93.41,1.31,45-14.59,103.78-71.92,97.61-27.15-2.92-45.43-18.83-62.07-39.39Zm109.29-92.41c-2.09-41.14-22.04-107.44-75.32-108.64-50.37-1.13-68.69,61.08-68.94,99.18-.18,27.09,6.21,56.99,23.44,78.84,13,16.49,30.18,29.37,52.24,31.93,55.67,6.47,70.65-60.71,68.59-101.32Zm-114.88-7.81c-.68-23.71,11.06-65.4,41.13-64.13,31.77,1.35,43.81,44.57,44.87,69.84,1.01,24-6.82,67.55-41.01,65.17-33.24-2.32-44.26-45.4-44.99-70.87Zm82.38,5.45c-.06-9.15-1.16-21.74-4.88-28.45-3.35-6.06-11.08-9.68-17.76-9.9-29.31-.98-37.14,38.03-37.56,60.25-.2,10.71,1.38,22.23,6.44,32.07,4.92,3.42,10.45,5.69,16.2,6.1,30.64,2.19,37.69-37.03,37.55-60.07Z"/><path class="l" d="M1214.12,911.82c-8-10.04-15.71-20.32-23.21-30.74-1.12-18.7-2.14-37.4-3.12-56.11,13.06,12.03,28.08,24.77,46.45,26.59,8.3,.83,15.37-.68,19.77-4.11-5.72-3.71-11.87-7.46-17.13-10.94-16.27-10.62-25.12-25.94-34.43-42.53-4.04-7.06-6.05-10.57-10.07-17.55-7.12-12.46-9.38-25.81-10.61-39.71-3.18-35.8,16.66-67.7,55.27-66.89,16.32,.34,34.15,3.89,48.66,11.94,9.31,10.25,18.09,20.9,26.75,31.7-.11,19.95-.25,39.89-.41,59.84-13.5-11.69-29.19-23.88-46.99-25.29-9.39-.75-17.74,2.49-21.98,8.09,19.19,8.75,34.42,20.61,47.01,37.56,5.54,8.71,11,17.46,16.39,26.25,9.76,15.33,13.76,34.83,12.95,52.31-1.52,32.8-18.84,65.31-57.58,58.96-17.06-2.79-33.49-9.16-47.73-19.38Zm81.21-75.63c-.12-13.69-2.6-27.96-10.22-40.62-12.22-19.45-32.87-27.62-52.16-38.03-9.11-4.54-17.73-12.33-18.17-22.92-.63-14.87,14.69-23.15,28.39-22.13,14.85,1.11,27.6,7.93,39.99,16-.27-14.35-.55-28.69-.91-43.03-14.89-6.4-29.2-10.13-44.94-10.86-35.07-1.63-54.02,28.97-51.83,62.29,1.84,28.04,15.44,48.86,39.15,63.54,14.26,8.83,37.02,17.64,38.25,36.9,.97,15.26-16.12,21.16-28.4,19.94-16.31-1.62-31.13-11.77-42.7-22.82,.78,14.72,1.59,29.44,2.46,44.15,13.94,10.34,30.55,17.05,47.43,19.54,37.96,5.59,53.9-32.43,53.64-61.97Z"/></g><path class="g" d="M491.74,1162.25s83.04,83.9,217.17,164.47c128.63-75.1,220.81-167.85,220.81-167.85"/><line class="k" x1="591.78" y1="993.31" x2="747.54" y2="1159.66"/><g><g><path class="t" d="M999.74,448.72c68.56-11.7,116.9,1.82,34.29,32.69-194.52,72.69-332.35,105.79-397.39,110.56-155.63,5.63-291.69-19.98-395.16-52.46-9.42-4.87-13.41-3.13-12.91-19.1l10.74-13.1c90.34,23.38,155.27,38.95,192.19,38.94,11.27,12.14,16.9,18.2,16.9,18.2,184.35-13.12,308.75-35.66,373.19-67.62,118.76-32.07,178.14-48.11,178.14-48.11"/><path class="t" d="M248.68,365.35c0-7.54,1.46-17.36,24.45-25.88,92.74-34.35,162.08-54.16,217.41-62.55,138.67,9.68,240.32,16.65,297.77,22.11-57,.89-194.04-5.01-296.99-11.18-13.39-1.95-154.89,32.5-221.18,59.29-10.72,4.58-18.33,9.88-21.46,18.2"/><path class="t" d="M272.22,435.17c35.68,12.2,98.41,21.42,175.93,24.84,6.63,.29,11.58-4.16,17.55-11.44,7.64-9.3,7.25-11.43,2.25-22.56-12.27-27.32-22.21-36.67-46.33-42.19-45.93-10.51-98.24-15.79-156.1-17.92-10.8-.4-20,1.92-21.91,16.23v27.57c0,18.53,9.02,18.79,28.61,25.49"/><path class="t" d="M462.03,395.94c60.57-7.49,118.44-12.66,178.65-20.57,23.26-3.05,26.67-7.05,14.27,11.54-19.26,28.89-17.65,33.56-54.54,37.37-25.63,2.65-54.76,5.98-79.64,6.99-14.64-19.31-19.04-24.43-21.45-27.81-25.34-5.86-37.32-7.88-37.29-7.53"/><path class="t" d="M827.58,211.91c6.23,3.72,7.09,9.52,2.6,17.42,1.51-4.79-1.09-8.43-5.72-10.92-40.19-3.93-172.16-10.02-202.91-3.56-31.33,6.59-74.21,32.5-101.88,58.69,0,0-6.59-.17-19.76-.52,37.98-29.3,84.23-65.86,134.25-66.7,67.8-1.13,132.28,.73,193.43,5.58"/><path class="t" d="M1011.32,274.71c-50.84-47.22-99.55-73.23-146.16-78.02-93.14-9.77-171.85-8.03-236.14,5.2,65.58-2.28,133.8-.63,204.67,4.94,6.44,.08,9.04,3.98,7.8,11.7,0,0-11.7,24.27-35.11,72.82,10.17-13.62,25.19-42.18,40.96-61.51,21.54-26.39,33.98-23.08,64.76-12.74,38.21,12.83,81.67,43.4,99.21,57.6"/><path class="t" d="M633.83,364.31c62.12-23.7,125.7-41.87,172.94-54.61-51.04,3.46-130.86,24.67-213.25,59.81,21.67-1.73,40.31-5.2,40.31-5.2"/><path class="t" d="M962.24,278.83c9.45-1.4,12.12-8.32,8.02-20.74,9.49,12.28,10.72,25.48,1.44,27.27,0,0-49.96,7.41-149.87,22.23,8-7.21,54.8-16.8,140.41-28.76"/><path class="t" d="M466.04,546.48l-23.53-30.23c-4.97-6.38-5.81-9.69-12.78-10.33-46.13-4.27-95.96-11.44-155.86-25.73-8.55-2.49-9.07-2.23-16.71,6.51l-25.13,29.24-.65-81.66c-.07-10.85-1.37-14.6,6.41-22.5,1.24,15.58,5.17,24.34,11.79,26.27,60.71,20.58,126.22,31.76,196.52,33.56,13.49,.25,17,.77,23.46-5.12,6.2-5.71,10.2-9.73,13.82-12.64l128.22-12.35c20.84-2.01,16.67,.37,7.92,18.26-10.83,22.15-18.99,41.36-28.59,63.84-5.23,12.25-5.86,15.18-19.52,17.17-31.96,4.67-61.84,5.61-105.38,5.72"/><path class="t" d="M798.14,495.94c1.71-27.33-1.62-49.09-8.35-65.68-13.98-34.47-41.57-45.91-68.54-40.79-63.74,11.76-84.75,93.57-81.04,147.65,.01,14-2.41,16.67-13.39,18.33-49.99,5.44-110.09,10.12-176.19,7.41,.4-.13-8.19-14.34-22.8-37.74-3.86-5.3-2.83-5.3-11.08-6.24-24.02-2.32-83.37-10.47-144.87-24.66-6.13-1.41-5.76-1.44-8.96,1.83-4.77,4.9-14.2,15.27-25.54,29.36,.98,.91,5.49,2.1,6.63,2.99,1.81-.61,3.88-1.01,5.85-1.18,47.59,14.57,124.38,30.8,182.17,39.54,6.49,8.3,10.03,13.49,13.13,13.91,55.91,3.29,120.44-.95,203.89-4.81,25.83,19.89,59.43,23.93,87.64,13.8,38.73-13.91,59.02-54.9,61.45-93.73"/><path class="t" d="M786.49,530.72c2.36-8.74,3.95-9.01,5.7-14.21,66.81-18.84,133.63-37.66,200.4-56.66l-27.05-2.86-153.05,40.83c-.42-46.1-14.96-78.21-44.47-102.07,6.54,5.29,46.03,11.96,54.35,89.07l144.73-36.8c-3.64-52.53,19.28-100.5,57.47-105.8,49.58-6.88,57.61,74.96,34.23,120.87-18.75,36.81-66.6,37.21-87.28,10.03l-185.04,57.6Z"/><path class="t" d="M1007.64,259.56l-2.99-2.84c23,1.21,33.05,1.55,41.22,2.09,36.15,2.39,30.41,97.94,24.32,119.62-1.22-38.87-14.65-85.29-23.11-95.58-11.86-14.43-27.46,0-39.44-23.29"/><path class="i" d="M255.03,399.21c2.39,12.89,5.39,19.48,8.99,19.77,30.71,9.1,83.22,18.62,157.47,23.22l12.93-35.7c10.31,5.74,17.47,21.61,20.74,29.72,2.6,4.81-2.33,13.4-13.26,14.04-44.45,2.15-157.47-16.9-181.06-27.12-5-2.21-6.93-10.18-5.82-23.93"/><path class="i" d="M417.27,418.75c2.44-2.34,5.17-11.45,6.17-16.73,.99-5.26,.62-8.18-7.12-10.03-63.15-13.81-129.41-18.32-148.78-15.07,47.33,3.38,113.42,12.31,147.59,22.24,5.83,.98,4.4,11.02,2.15,19.59"/><path class="g" d="M264.37,518.65c31.56,6.92,60.69,12.85,87.37,17.78,27.46,5.07,52.32,9.08,74.6,12.04l1.57,5.25-.03,.18c-23.02-3-48.78-7.14-77.27-12.4-28.5-5.26-59.75-11.66-93.73-19.18l7.5-3.68Z"/><path class="h" d="M274.88,504.53c29.05,6.46,55.85,11.95,80.4,16.48,25.26,4.66,48.13,8.31,68.61,10.93l1.51,5.23-.02,.18c-21.16-2.66-44.85-6.41-71.06-11.25-26.22-4.84-54.98-10.77-86.26-17.78l6.82-3.79Z"/><path class="i" d="M562.97,525.29c-16.83,1.25-33.85,2.37-54.18,3.37-8.37,.53-9.14-1.15-12.01-14.05l-7.67-34.51c39.79-2.05,76.74-5.09,103.77-8.12-8.28,12.43-9.58,10.21-22.83,11.42-34,3.09-58.02,5.68-58.57,5.1l9.2,9.35c1.45,11.88,3.54,21.33,3.54,21.33,19.81-.41,36.63-2.21,53.65-3.41-4.38,10.02-4.08,8.72-14.9,9.52"/><path class="t" d="M752.43,468.74c9.95,1.55,15.83,17.73,13.14,36.13-2.69,18.4-12.94,32.07-22.89,30.51-9.95-1.55-15.83-17.73-13.14-36.14,2.69-18.4,12.94-32.06,22.89-30.51m-26.79,8.12c1.28,.15,2.12,2.01,1.88,4.17-.25,2.16-1.48,3.79-2.76,3.64-1.28-.15-2.12-2.01-1.88-4.17,.24-2.16,1.48-3.78,2.76-3.64Zm-4.77,18.02c1.5,.23,2.42,2.48,2.05,5.01-.37,2.53-1.89,4.4-3.39,4.16-1.5-.24-2.42-2.48-2.05-5.01,.37-2.53,1.89-4.4,3.39-4.16Zm13.66-32.38c1.24,.19,2,2.05,1.7,4.15-.31,2.1-1.56,3.64-2.81,3.44-1.24-.19-2-2.05-1.7-4.15,.31-2.1,1.56-3.64,2.81-3.45Zm12.43-6.26c1.24,.19,2,2.05,1.7,4.15-.31,2.1-1.56,3.64-2.81,3.45-1.24-.19-2-2.05-1.7-4.15,.31-2.1,1.56-3.64,2.81-3.45Zm-21.01,50.44c-5.23-.17-9.69,.57-13.38,2.23,3.58,52.08,38.37,49.6,50.5,16.94-17.68,25.64-38.93,10.82-37.12-19.16Zm23.31-58.28c16.58,2.59,26.62,27.95,22.42,56.65-4.2,28.7-21.05,49.87-37.63,47.29-16.58-2.59-26.62-27.95-22.42-56.65,4.2-28.7,21.05-49.87,37.63-47.29Z"/><path class="t" d="M720.35,517.3c.29-.02,.57,.03,.84,.15-.27-.06-.54-.06-.8,.02-1.3,.39-1.96,2.46-1.49,4.62,.47,2.16,1.9,3.6,3.2,3.21,.18-.05,.34-.14,.49-.25-.47,.86-1.13,1.43-1.89,1.49-1.52,.12-2.83-1.86-2.93-4.41-.1-2.55,1.05-4.71,2.58-4.83"/><path class="t" d="M727.25,534.94c.23-.13,.48-.2,.74-.21-.24,.06-.46,.16-.65,.33-.94,.82-.83,2.74,.24,4.28,1.07,1.54,2.69,2.13,3.63,1.3,.13-.11,.24-.24,.33-.39-.11,.88-.47,1.59-1.07,1.93-1.21,.7-2.9-.36-3.79-2.37-.88-2-.62-4.18,.58-4.88"/><path class="t" d="M710.45,419.02c-44.85,28.84-53.41,120.96-20.43,150.86-22.47-49.15-15.85-113.48,20.43-150.86"/><path class="t" d="M693.42,418.14c-44.22,28.08-52.96,116.17-22.04,152.89-20.81-49.15-13.15-113.03,22.04-152.89"/><path class="t" d="M734.16,424.7c-50.99,1.82-66.13,125.43-20.8,147.17-34.44-29.32-25.59-129.91,20.8-147.17"/><path class="t" d="M770.84,429.68c25.71,27.39,23.33,90.06-.94,121.18-13.79,17.68-34.36,25.23-52.52,9.71,4.32,2.87,8.99,4.61,13.93,5.02,13.81,1.14,28.86-8.37,38.24-24.42,18.63-31.86,18.23-78.97,1.28-111.49"/><path class="t" d="M834.73,274.32c-8.3,9.39-.91,18.97,14.16,18.97h38c19.29-3.2,22.93-16.63,14.04-27.54-5.8-7.13-10.72-6.74-19.57-6.83-7.89-.08-11.08-.01-15.99,.09-14.34,.31-20.92,4.89-30.64,15.3"/><path class="t" d="M840.14,277.75c-.65,.64-1.11,1.23-1.41,1.77,10.74-6,30.25-8.27,58.53-6.84-.54-.91-1.22-1.76-1.95-2.53-1.21-1.28-2.71-2.64-4.73-3.16-2.45-.63-6.7-.49-9.3-.51-5.27-.05-10.48-.02-15.75,.08-12.62,.23-17.57,3.97-25.41,11.19"/><path class="t" d="M833.3,280.18c2.44,3.27,4.52,5.53,6.24,6.76,0,0-7.63,5.55-22.89,16.64-7.41-.91-10.18-4.55-8.32-10.92,0,0,8.32-4.16,24.97-12.48"/><path class="t" d="M753.94,480.95c6.15,.94,9.88,9.95,8.32,20.13-1.55,10.18-7.8,17.67-13.95,16.73-6.15-.94-9.88-9.95-8.32-20.13,1.55-10.18,7.8-17.67,13.95-16.73"/><path class="t" d="M1047.07,325.81c-27.53-24.45-95.07,11.99-86.34,78.03,4.62-48.12,42.03-88.56,86.34-78.03"/><path class="t" d="M1037,400.15c6.7,1.1,10.64,12.43,8.81,25.31-1.83,12.88-8.75,22.43-15.45,21.33-6.7-1.1-10.64-12.43-8.81-25.31,1.83-12.88,8.75-22.43,15.45-21.33m-18.05,5.65c.86,.1,1.42,1.41,1.26,2.92-.17,1.51-1,2.65-1.86,2.54-.86-.1-1.42-1.41-1.26-2.92,.17-1.51,1-2.65,1.86-2.54Zm-3.23,12.61c1.01,.17,1.63,1.74,1.37,3.51-.25,1.77-1.28,3.08-2.29,2.91-1.01-.17-1.63-1.74-1.37-3.51,.25-1.77,1.28-3.08,2.29-2.91Zm9.24-22.65c.84,.14,1.35,1.44,1.14,2.91-.21,1.47-1.06,2.54-1.89,2.41-.84-.14-1.35-1.44-1.14-2.9,.21-1.47,1.06-2.55,1.89-2.41Zm8.38-4.37c.84,.14,1.35,1.44,1.14,2.91-.21,1.47-1.06,2.55-1.89,2.41-.84-.14-1.35-1.44-1.14-2.91,.21-1.47,1.06-2.55,1.89-2.41Zm-14.2,35.28c-3.52-.12-6.53,.39-9.01,1.54,2.36,36.46,25.79,34.76,33.99,11.91-11.93,17.93-26.22,7.53-24.97-13.45Zm15.76-40.77c11.16,1.83,17.9,19.59,15.04,39.68-2.86,20.09-14.22,34.89-25.39,33.06-11.16-1.83-17.9-19.6-15.04-39.68,2.86-20.09,14.23-34.89,25.39-33.06Z"/><path class="t" d="M1015.35,434.11c.2-.01,.39,.02,.57,.11-.18-.04-.36-.04-.54,.01-.87,.27-1.32,1.72-1.01,3.23,.31,1.51,1.28,2.52,2.15,2.25,.12-.04,.23-.1,.33-.17-.31,.6-.76,1-1.27,1.04-1.02,.08-1.91-1.3-1.97-3.09-.06-1.79,.71-3.3,1.74-3.38"/><path class="t" d="M1019.97,446.46c.16-.09,.32-.14,.5-.15-.16,.04-.31,.11-.44,.23-.63,.57-.56,1.92,.15,3,.72,1.08,1.81,1.49,2.44,.92,.08-.08,.16-.17,.22-.27-.07,.61-.32,1.11-.72,1.35-.81,.49-1.95-.26-2.55-1.66-.59-1.4-.41-2.93,.4-3.41"/><path class="t" d="M1038,408.7c4.14,.66,6.64,6.98,5.58,14.1-1.06,7.12-5.27,12.36-9.41,11.7-4.14-.66-6.64-6.98-5.58-14.1,1.06-7.12,5.27-12.36,9.41-11.7"/><path class="t" d="M1033.31,363.08c-44.01,1.45-57.07,100.18-17.95,117.55-29.73-23.41-22.08-103.76,17.95-117.55"/><path class="t" d="M1019.23,356.37c-44.01,1.56-57.08,107.72-17.95,126.39-29.73-25.18-22.08-111.56,17.95-126.39"/><path class="i" d="M1051.22,378.66c17.38,19.13,15.77,62.9-.63,84.64-9.32,12.35-23.23,17.62-35.5,6.78,2.92,2,6.08,3.22,9.41,3.5,9.34,.79,19.51-5.84,25.86-17.05,12.6-22.25,12.32-55.16,.87-77.87"/><path class="i" d="M590.37,394.2c-3.18,7.97-2.6,15.67,4.09,23.17,0,0-18.39,1.55-55.17,4.63,0,0-3.06-7.72-9.19-23.17,40.18-3.09,60.27-4.63,60.27-4.63"/><path class="i" d="M609.69,393.83c4.11,5.73,4.46,11.8,1.05,18.19,9.33-3.66,7.76-16.78-1.05-18.19"/><path class="t" d="M880.37,221.97c13.85-1.24,42.68,6.68,75.78,21.94-27.23-14.32-58.16-28.07-77.78-26.92-10.47,.5-30.95,19.84-44.37,42.88,17.03-22.38,34.48-36.34,46.37-37.89"/><path class="t" d="M547.81,339.23c49.17-11.19,116.17-29.05,150.32-31.91-14.14,.96-79.64,27.59-234.82,68.55-48.3-9.76-106.92-16.6-173.92-20.71,28.68-4.26,27.7-5.98,69.7-4.94,95.11,2.36,76.63,14.51,188.73-10.99"/><g><path class="i" d="M716.47,425.47l.7,39.34c.17,8.71,9,13.47,14.61,8.12l21.99-20.74-23.01,23.6c-5.13,5.3-2.8,15.14,4.28,17.1l32.81,8.13-31.95-6.5c-7.38-1.67-13.39,6.56-10.3,14.11l15.73,34.49-15.92-31.81c-3.5-7.76-13.81-7.35-17.25,.94l-15.67,36.49,15.46-39.25c3.04-8.02-3.04-16.22-10.4-14.14l-31.89,9.5,32.74-11.3c7.07-2.32,9.32-12.59,4.16-18.29l-23.2-28.8,22.16,25.71c5.65,5.86,14.45,1.31,14.55-7.42l.41-39.29Z"/><path class="p" d="M716.47,425.47l.7,39.34c.17,8.71,9,13.47,14.61,8.12l21.99-20.74-23.01,23.6c-5.13,5.3-2.8,15.14,4.28,17.1l32.81,8.13-31.95-6.5c-7.38-1.67-13.39,6.56-10.3,14.11l15.73,34.49-15.92-31.81c-3.5-7.76-13.81-7.35-17.25,.94l-15.67,36.49,15.46-39.25c3.04-8.02-3.04-16.22-10.4-14.14l-31.89,9.5,32.74-11.3c7.07-2.32,9.32-12.59,4.16-18.29l-23.2-28.8,22.16,25.71c5.65,5.86,14.45,1.31,14.55-7.42l.41-39.29Z"/></g><path class="g" d="M713.36,571.87c25.09,7.79,46.27-5.83,59.59-26.62,24.69-39.67,25.58-96.64-4.57-133.71-16.24-19.83-43.3-20.09-64.52-8.32-17.44,9.44-30.81,25.22-39.77,42.72-3.72,7.04-6.34,14.59-8.14,22.33-.57,1.91-.92,3.87-1.25,5.83-.39,1.95-1.1,3.86-1.3,5.86-.03,.2-.21,.33-.41,.31-.2-.03-.34-.22-.3-.42,.38-1.97,.26-4.02,.63-6,.69-2.94,1.07-5.95,1.87-8.86,3.06-10.65,6.83-21.19,12.81-30.6,16.27-27.03,49.98-49.95,82.31-38.72,15.9,5.57,26.05,20.22,33.04,34.77,16.84,36.75,13.3,82.16-8.21,116.23-10.71,16.85-29.24,31.28-50.22,28.84-4.06-.42-8.05-1.39-11.87-2.78-.24-.09-.36-.35-.27-.59,.09-.24,.35-.36,.59-.28h0Z"/><ellipse class="s" cx="717.77" cy="489.86" rx="7.37" ry="8.71"/><g><path class="i" d="M1002.47,371.88l9.65,28.24c2.33,6.06,9.94,6.04,12.53,.16l9.87-23.42-9.85,25.84c-2.26,5.63,2.07,11.64,7.66,10.54l24.97-4.58-23.9,5.43c-5.72,1.39-7.76,9.15-3.35,13.17l22.02,17.82-21.37-15.95c-4.78-4.01-12.24-.04-12.43,6.68l-.89,28.67-.06-30.4c-.01-6.42-6.8-9.59-11.77-5.34l-22.19,19.22,22.34-20.74c4.68-4.3,3.62-12.12-1.71-13.93l-24.78-9.23,23.21,7.56c5.71,1.7,11.01-4.91,8.88-11.08l-8.83-28.65Z"/><path class="o" d="M1002.47,371.88l9.65,28.24c2.33,6.06,9.94,6.04,12.53,.16l9.87-23.42-9.85,25.84c-2.26,5.63,2.07,11.64,7.66,10.54l24.97-4.58-23.9,5.43c-5.72,1.39-7.76,9.15-3.35,13.17l22.02,17.82-21.37-15.95c-4.78-4.01-12.24-.04-12.43,6.68l-.89,28.67-.06-30.4c-.01-6.42-6.8-9.59-11.77-5.34l-22.19,19.22,22.34-20.74c4.68-4.3,3.62-12.12-1.71-13.93l-24.78-9.23,23.21,7.56c5.71,1.7,11.01-4.91,8.88-11.08l-8.83-28.65Z"/></g><ellipse class="s" cx="1018.54" cy="418.63" rx="5.07" ry="6.52" transform="translate(-81.89 460.11) rotate(-24.5)"/><path class="g" d="M743.86,519.43c9.25-13.6,10.97-31.03,7.78-46.89-2.12-12.53-7.97-23.19-19.6-29.13-3.61-1.88-7.59-3.31-11.63-3.66,4.06,.04,8.24,1.25,11.92,3.09,7.37,3.73,13.55,10.03,16.97,17.57,4.56,11.51,5.91,24.32,4.19,36.57-1.22,8.18-4.15,16.14-8.82,22.99-.36,.46-1.15,.05-.8-.54h0Z"/><path class="g" d="M742.06,548.12c-10,14.67-30.74,13.47-45.54,7.75-11.31-4.08-19.2-13.88-25.35-23.77-4.77-7.95-9.1-16.93-9.14-26.34,.6,9.31,5.08,18.01,9.73,25.98,4.87,7.83,11.12,15.14,18.93,20.09,11.49,6.32,27.65,9.53,40.07,4.34,4.23-1.81,7.89-4.82,10.5-8.61,.33-.52,1.17,.02,.8,.55h0Z"/><path class="g" d="M742.06,548.12c-5.63,8.44-16.23,11.7-25.95,11.51-4.9-.04-9.78-.75-14.52-1.99-4.71-1.28-9.56-2.97-13.23-6.31-3.8-3.14-6.81-7.76-6.7-12.85-.08-4.88,1.86-9.59,1.15-14.43-1.62-9.8-13.06-14.43-20.76-18.28,6.66,2.78,13.76,5.7,18.5,11.42,3.35,3.88,3.51,9.32,2.64,14.11-.74,4.67-1.28,9.67,1.29,13.85,3.66,6.31,10.54,9.7,17.41,11.39,9.18,2.38,19.31,3.12,28.3-.33,4.44-1.72,8.37-4.72,11.08-8.64,.33-.52,1.17,.02,.8,.55h0Z"/><path class="g" d="M1040.12,348.19c-15.94-4.28-33.23,2.58-44.28,14.31-5.56,5.99-10.01,12.95-13.91,20.12-3.94,7.13-6.97,15.17-9.75,22.6,4.73-15.75,11.75-31.19,22.75-43.58,1.98-2.46,4.38-4.51,6.95-6.3,4.23-3,8.92-5.55,13.83-7.22,7.61-2.6,17.53-3.61,24.41,.08h0Z"/><path class="t" d="M753.48,370.65c63.1-31.05,161.89-54.61,224.53-54.61-105.4,0-162.47,21.67-257.3,53.33-2.83,.95-1.94,5.16,1.03,4.89,18.39-1.69,31.73-3.61,31.73-3.61"/><path class="t" d="M470.75,343.51c.1,3.14-30.15,4.32-59.98,1.83-48.77-4.06-59.72-4.43-59.62-6.81s14.09-2.14,59.98-1.83c52.39,.35,59.55,4.42,59.62,6.81Z"/><path class="m" d="M357.6,329.1c16.54-2.06,40.58-4.07,69.43-3.09,20.86,.71,38.45,2.79,51.89,4.9"/><path class="s" d="M607.26,311.16c-18.66,5.16-36.92,12.09-56.06,15.42-13.57,2.5-27.36,5.34-41.17,6.13-9.76,.58-19.52,.25-29.23-.66l-2.07-.2c-.75,0-1.6-.22-2.15-1.15-.72-1.22,3.82-.59,4.35-.67,23.46,1.24,46.42-4.04,69.36-8.44,13.48-2.34,27.3-4.49,40.73-7.13,5.42-1.09,10.86-2.12,16.2-3.51,.13-.04,.2,.18,.06,.21h0Z"/></g><polygon class="n" points="295.99 396.23 292.93 396.42 291.57 399.18 293.27 401.73 296.33 401.53 297.69 398.78 295.99 396.23"/><polygon class="n" points="291.55 398.88 288.51 399.32 287.38 402.17 289.28 404.58 292.32 404.14 293.45 401.29 291.55 398.88"/><polygon class="n" points="287.15 402.54 284.11 402.98 282.98 405.84 284.88 408.25 287.92 407.8 289.05 404.95 287.15 402.54"/><polygon class="n" points="282.53 405.9 279.5 406.35 278.36 409.2 280.27 411.61 283.3 411.16 284.44 408.31 282.53 405.9"/><polygon class="n" points="278.24 408.83 275.21 409.28 274.07 412.13 275.97 414.54 279.01 414.09 280.15 411.24 278.24 408.83"/><polygon class="n" points="273.91 412.15 270.87 412.6 269.73 415.45 271.64 417.86 274.68 417.41 275.81 414.56 273.91 412.15"/><polygon class="n" points="273.14 406.89 270.1 407.34 268.97 410.19 270.87 412.6 273.91 412.15 275.04 409.3 273.14 406.89"/><polygon class="n" points="292.61 415.24 295.65 414.8 296.78 411.94 294.88 409.54 291.84 409.98 290.71 412.83 292.61 415.24"/><polygon class="n" points="297.01 411.58 300.04 411.13 301.18 408.28 299.27 405.87 296.24 406.32 295.1 409.17 297.01 411.58"/><polygon class="n" points="301.62 408.22 304.66 407.77 305.79 404.92 303.89 402.51 300.85 402.96 299.72 405.81 301.62 408.22"/><polygon class="n" points="305.91 405.29 308.95 404.84 310.09 401.99 308.18 399.58 305.14 400.03 304.01 402.88 305.91 405.29"/><polygon class="n" points="310.25 401.97 313.29 401.52 314.42 398.67 312.52 396.26 309.48 396.7 308.35 399.56 310.25 401.97"/><polygon class="n" points="311.02 407.23 314.06 406.78 315.19 403.93 313.29 401.52 310.25 401.97 309.12 404.82 311.02 407.23"/><polygon class="n" points="327.98 402.9 324.95 403.34 323.81 406.2 325.72 408.6 328.75 408.16 329.89 405.31 327.98 402.9"/><polygon class="n" points="323.59 406.56 320.55 407.01 319.42 409.86 321.32 412.27 324.36 411.82 325.49 408.97 323.59 406.56"/><polygon class="n" points="318.97 409.92 315.93 410.37 314.8 413.22 316.7 415.63 319.74 415.18 320.87 412.33 318.97 409.92"/><polygon class="n" points="314.68 412.85 311.64 413.3 310.51 416.15 312.41 418.56 315.45 418.11 316.58 415.26 314.68 412.85"/><polygon class="n" points="310.34 416.17 307.3 416.62 306.17 419.47 308.07 421.88 311.11 421.44 312.25 418.58 310.34 416.17"/><polygon class="n" points="309.57 410.91 306.54 411.36 305.4 414.21 307.3 416.62 310.34 416.17 311.48 413.32 309.57 410.91"/><polygon class="n" points="364.36 406.97 361.3 407.17 359.94 409.92 361.64 412.47 364.71 412.28 366.07 409.52 364.36 406.97"/><polygon class="n" points="359.92 409.62 356.88 410.07 355.75 412.92 357.65 415.33 360.69 414.88 361.82 412.03 359.92 409.62"/><polygon class="n" points="355.52 413.28 352.49 413.73 351.35 416.58 353.26 418.99 356.29 418.55 357.43 415.69 355.52 413.28"/><polygon class="n" points="350.91 416.65 347.87 417.09 346.73 419.94 348.64 422.35 351.68 421.91 352.81 419.05 350.91 416.65"/><polygon class="n" points="346.61 419.58 343.58 420.02 342.44 422.87 344.35 425.28 347.38 424.84 348.52 421.99 346.61 419.58"/><polygon class="n" points="342.28 422.9 339.24 423.34 338.11 426.19 340.01 428.6 343.05 428.16 344.18 425.31 342.28 422.9"/><polygon class="n" points="341.51 417.64 338.47 418.08 337.34 420.93 339.24 423.34 342.28 422.9 343.41 420.05 341.51 417.64"/><polygon class="n" points="360.98 425.99 364.02 425.54 365.15 422.69 363.25 420.28 360.21 420.72 359.08 423.58 360.98 425.99"/><polygon class="n" points="365.38 422.32 368.42 421.88 369.55 419.03 367.65 416.62 364.61 417.06 363.47 419.91 365.38 422.32"/><polygon class="n" points="370 418.96 373.03 418.52 374.17 415.66 372.26 413.26 369.23 413.7 368.09 416.55 370 418.96"/><polygon class="n" points="374.29 416.03 377.32 415.59 378.46 412.73 376.55 410.33 373.52 410.77 372.38 413.62 374.29 416.03"/><polygon class="n" points="378.62 412.71 381.66 412.26 382.79 409.41 380.89 407 377.85 407.45 376.72 410.3 378.62 412.71"/><polygon class="n" points="379.39 417.97 382.43 417.53 383.56 414.67 381.66 412.26 378.62 412.71 377.49 415.56 379.39 417.97"/><polygon class="n" points="396.35 413.64 393.32 414.09 392.18 416.94 394.09 419.35 397.12 418.9 398.26 416.05 396.35 413.64"/><polygon class="n" points="391.96 417.3 388.92 417.75 387.79 420.6 389.69 423.01 392.73 422.57 393.86 419.71 391.96 417.3"/><polygon class="n" points="387.34 420.67 384.3 421.11 383.17 423.96 385.07 426.37 388.11 425.93 389.25 423.08 387.34 420.67"/><polygon class="n" points="383.05 423.6 380.01 424.04 378.88 426.89 380.78 429.3 383.82 428.86 384.95 426.01 383.05 423.6"/><polygon class="n" points="378.71 426.92 375.68 427.36 374.54 430.22 376.45 432.62 379.48 432.18 380.62 429.33 378.71 426.92"/><polygon class="n" points="377.94 421.66 374.91 422.1 373.77 424.95 375.68 427.36 378.71 426.92 379.85 424.07 377.94 421.66"/><g class="u"><polygon class="n" points="289.76 384.89 286.69 385.09 285.33 387.84 287.04 390.39 290.1 390.2 291.46 387.44 289.76 384.89"/><polygon class="n" points="285.31 387.54 282.27 387.99 281.14 390.84 283.04 393.25 286.08 392.8 287.21 389.95 285.31 387.54"/><polygon class="n" points="280.92 391.2 277.88 391.65 276.74 394.5 278.65 396.91 281.68 396.47 282.82 393.61 280.92 391.2"/><polygon class="n" points="276.3 394.57 273.26 395.01 272.13 397.86 274.03 400.27 277.07 399.83 278.2 396.98 276.3 394.57"/><polygon class="n" points="272.01 397.5 268.97 397.94 267.84 400.79 269.74 403.2 272.78 402.76 273.91 399.91 272.01 397.5"/><polygon class="n" points="267.67 400.82 264.63 401.26 263.5 404.12 265.4 406.52 268.44 406.08 269.57 403.23 267.67 400.82"/><polygon class="n" points="266.9 395.56 263.86 396 262.73 398.85 264.63 401.26 267.67 400.82 268.8 397.97 266.9 395.56"/><polygon class="n" points="286.37 403.91 289.41 403.46 290.55 400.61 288.64 398.2 285.6 398.65 284.47 401.5 286.37 403.91"/><polygon class="n" points="290.77 400.24 293.81 399.8 294.94 396.95 293.04 394.54 290 394.98 288.87 397.84 290.77 400.24"/><polygon class="n" points="295.39 396.88 298.42 396.44 299.56 393.58 297.66 391.18 294.62 391.62 293.48 394.47 295.39 396.88"/><polygon class="n" points="299.68 393.95 302.72 393.51 303.85 390.65 301.95 388.25 298.91 388.69 297.77 391.54 299.68 393.95"/><polygon class="n" points="304.01 390.63 307.05 390.19 308.19 387.33 306.28 384.92 303.24 385.37 302.11 388.22 304.01 390.63"/><polygon class="n" points="304.78 395.89 307.82 395.45 308.96 392.59 307.05 390.19 304.01 390.63 302.88 393.48 304.78 395.89"/><polygon class="n" points="321.75 391.56 318.71 392.01 317.58 394.86 319.48 397.27 322.52 396.82 323.65 393.97 321.75 391.56"/><polygon class="n" points="317.35 395.23 314.31 395.67 313.18 398.52 315.08 400.93 318.12 400.49 319.26 397.63 317.35 395.23"/><polygon class="n" points="312.73 398.59 309.7 399.03 308.56 401.89 310.47 404.29 313.5 403.85 314.64 401 312.73 398.59"/><polygon class="n" points="308.44 401.52 305.41 401.96 304.27 404.82 306.18 407.22 309.21 406.78 310.35 403.93 308.44 401.52"/><polygon class="n" points="304.11 404.84 301.07 405.28 299.94 408.14 301.84 410.54 304.88 410.1 306.01 407.25 304.11 404.84"/><polygon class="n" points="303.34 399.58 300.3 400.02 299.17 402.88 301.07 405.28 304.11 404.84 305.24 401.99 303.34 399.58"/><polygon class="n" points="358.13 395.63 355.06 395.83 353.7 398.59 355.41 401.14 358.47 400.94 359.83 398.19 358.13 395.63"/><polygon class="n" points="353.68 398.29 350.65 398.73 349.51 401.58 351.41 403.99 354.45 403.55 355.59 400.69 353.68 398.29"/><polygon class="n" points="349.29 401.95 346.25 402.39 345.12 405.25 347.02 407.65 350.06 407.21 351.19 404.36 349.29 401.95"/><polygon class="n" points="344.67 405.31 341.63 405.76 340.5 408.61 342.4 411.02 345.44 410.57 346.57 407.72 344.67 405.31"/><polygon class="n" points="340.38 408.24 337.34 408.69 336.21 411.54 338.11 413.95 341.15 413.5 342.28 410.65 340.38 408.24"/><polygon class="n" points="336.04 411.56 333 412.01 331.87 414.86 333.77 417.27 336.81 416.82 337.95 413.97 336.04 411.56"/><polygon class="n" points="335.27 406.3 332.24 406.75 331.1 409.6 333 412.01 336.04 411.56 337.18 408.71 335.27 406.3"/><polygon class="n" points="354.75 414.65 357.78 414.21 358.92 411.35 357.01 408.95 353.98 409.39 352.84 412.24 354.75 414.65"/><polygon class="n" points="359.14 410.99 362.18 410.54 363.31 407.69 361.41 405.28 358.37 405.73 357.24 408.58 359.14 410.99"/><polygon class="n" points="363.76 407.63 366.8 407.18 367.93 404.33 366.03 401.92 362.99 402.36 361.86 405.22 363.76 407.63"/><polygon class="n" points="368.05 404.7 371.09 404.25 372.22 401.4 370.32 398.99 367.28 399.43 366.15 402.29 368.05 404.7"/><polygon class="n" points="372.39 401.37 375.42 400.93 376.56 398.08 374.65 395.67 371.62 396.11 370.48 398.97 372.39 401.37"/><polygon class="n" points="373.16 406.64 376.19 406.19 377.33 403.34 375.42 400.93 372.39 401.37 371.25 404.23 373.16 406.64"/><polygon class="n" points="390.12 402.31 387.08 402.75 385.95 405.6 387.85 408.01 390.89 407.57 392.02 404.72 390.12 402.31"/><polygon class="n" points="385.72 405.97 382.69 406.41 381.55 409.27 383.46 411.68 386.49 411.23 387.63 408.38 385.72 405.97"/><polygon class="n" points="381.11 409.33 378.07 409.78 376.93 412.63 378.84 415.04 381.88 414.59 383.01 411.74 381.11 409.33"/><polygon class="n" points="376.81 412.26 373.78 412.71 372.64 415.56 374.55 417.97 377.58 417.52 378.72 414.67 376.81 412.26"/><polygon class="n" points="372.48 415.58 369.44 416.03 368.31 418.88 370.21 421.29 373.25 420.84 374.38 417.99 372.48 415.58"/><polygon class="n" points="371.71 410.32 368.67 410.77 367.54 413.62 369.44 416.03 372.48 415.58 373.61 412.73 371.71 410.32"/></g><line class="q" x1="449.69" y1="492.42" x2="476.74" y2="529.78"/><line class="r" x1="427.9" y1="517.94" x2="484.96" y2="449.11"/><line class="r" x1="242.05" y1="426.31" x2="267.54" y2="481.78"/><path class="k" d="M956.16,444.55l-128.69,29.99s-2.09-56.4-39.16-77.81c6.4,1.51,139.31,11.24,165.66,9.48,5.99-.4,4.49,1.27,4.11,4.73-.91,8.34-2.21,26.11-1.92,33.62Z"/></g><g class="f"><g><path class="j" d="M89.24,920.26c.02-83.87,.02-167.73,0-251.6,11.13-.14,22.25-.25,33.38-.33,12.27,9.31,24.05,19.02,35.67,29.13,7.44,16.79,14.44,33.73,21.27,50.77-.19-26.65-.4-53.3-.88-79.95,10.62,.04,21.23,.11,31.85,.2,7.74,9.41,14.99,19.22,21.97,29.2,1.48,74,1.97,148.07,1.14,222.08-11.12,1.88-22.22,3.83-33.32,5.85-7.29-7.66-13.83-15.88-20.38-24.17-12.89-27.2-24.04-55.05-34.86-83.12,0,39.51,0,79.03-.25,118.54-11.42,2.51-22.81,5.14-34.18,7.88-7.78-7.63-14.59-16.01-21.43-24.48Zm52.02,12.87c.23-41.45,.24-82.9,.22-124.34-5.84-15.38-11.62-30.79-17.47-46.16,.06,50.49,.04,100.98-.08,151.47-9.49,2.06-18.96,4.2-28.42,6.42,6.68,8.51,10,12.41,16.59,19.31,9.7-2.32,19.42-4.55,29.16-6.69Zm38.37-173.81c-7.67-19.41-15.37-38.82-23.87-57.88-8.97-8.07-18.13-15.92-27.58-23.43,19.79,40.56,35.35,82.98,51.63,125.02-.04-14.57-.1-29.14-.18-43.7Zm50.54,156.61c.66-72.06,.26-144.16-1.11-216.22-5.52-8.03-11.28-15.97-17.27-23.66,1.62,73.58,1.84,147.2,1.54,220.8-10.98,1.85-16.48,2.81-27.53,4.84,6.41,8.33,9.6,12.19,15.96,19.23,9.45-1.75,18.93-3.41,28.41-4.99Z"/><path class="j" d="M279.68,885.55c-14.61-72.2-25.06-145.47-43.59-216.82,11.77,.13,23.53,.27,35.3,.41,9.1,8.65,17.85,17.66,26.39,26.86,3.11,14.79,6.03,29.6,8.82,44.46,3.62-23.61,7.24-47.22,11.39-70.75,14.19,.16,28.37,.3,42.56,.43,9.54,8.53,18.82,17.36,27.94,26.33,3.46,14.38,6.7,28.78,9.8,43.24,3.92-23.12,7.82-46.23,12.02-69.3,13.16,.03,26.31,.03,39.47-.02,7.15,8.86,14.13,17.79,21.02,26.85-16.23,66.72-30.56,133.97-49.28,200.06-10.27,.83-20.53,1.72-30.78,2.67-6.84-8.13-13.41-16.46-19.96-24.82-5.67-28.57-11.19-57.18-16.87-85.75-7.25,39.08-14.32,78.34-24.15,116.88-10,1.16-20,2.39-29.98,3.7-7.04-7.88-13.57-16.14-20.09-24.44Zm25.14-133.88c-3.18-17.69-6.5-35.33-10.1-52.94-6.66-7.35-13.49-14.6-20.49-21.63,9.22,41.25,16.11,82.95,22.96,124.65,2.57-16.69,5.1-33.39,7.63-50.08Zm22.46,150.5c9.63-40.56,17.17-81.54,24.63-122.54-3.3-16.45-6.73-32.87-10.35-49.26-8.95,50.78-17.45,101.65-28.06,152.11-9.35,1.12-18.7,2.3-28.04,3.54,6.33,8.21,9.49,12.09,15.76,19.37,10.41-1.35,15.61-1.99,26.06-3.23Zm69.25-151.91c-3.54-17.1-7.21-34.16-11.3-51.14-7.09-7.1-14.29-14.11-21.62-20.95,10.04,38.95,17.78,78.39,25.13,117.93,2.63-15.28,5.22-30.56,7.8-45.85Zm22.59,142.76c17.77-64.38,31.6-129.77,47.16-194.7-6.51-8.7-9.79-12.97-16.38-21.19-15.28,65.19-28.37,130.88-44.47,195.89-9.62,.84-19.24,1.73-28.85,2.67,6.35,8.19,9.5,12.12,15.74,19.7,10.66-.98,16.01-1.45,26.79-2.36Z"/><path class="j" d="M521.15,863.16c23.06-64.35,43.89-129.48,67.49-193.64,14.3,0,28.59,.04,42.89,.08,9.25,8.29,18.31,16.79,27.24,25.43,15.62,63.08,26.99,127.13,42.87,190.15-14.69,.16-29.37,.37-44.06,.64-8.32-8.21-16.4-16.65-24.29-25.27-.72-3.81-1.08-5.73-1.79-9.61-15.76,.3-31.51,.68-47.27,1.11-4.6,12.19-9.35,24.32-14.31,36.38-11.07,.45-22.14,.93-33.21,1.44-5.33-8.81-10.5-17.73-15.55-26.71Zm46.64,20.89c4.92-12.18,9.64-24.43,14.23-36.73,16.22-.44,32.44-.83,48.66-1.12-1.57-8.61-2.35-13-3.93-21.86-18.41,.31-36.83,.7-55.24,1.15-4.5,12.73-9.1,25.44-13.84,38.08-10.3,.36-20.61,.76-30.91,1.2,4.83,8.4,7.23,12.52,12.06,20.49,9.66-.44,19.31-.85,28.97-1.22Zm36.71-102.23c3.51-9.57,6.99-19.15,10.47-28.73-2.38-11.29-4.82-22.56-7.34-33.82-7.51,20.94-14.97,41.9-22.48,62.84,7.7-.13,11.57-.19,19.35-.3Zm16.22-.21c-1.69-8.6-2.55-12.91-4.29-21.48-3.1,8.62-4.66,12.96-7.81,21.63,4.83-.07,7.25-.1,12.1-.15Zm75.48,99.28c-14.88-60.73-25.94-122.32-40.79-183.06-6.8-6.69-13.7-13.3-20.69-19.79,15.94,60.35,26.95,121.81,40.41,182.73-11.63,.15-23.26,.33-34.89,.54,7.65,8.25,11.51,12.29,19.34,20.1,12.21-.23,24.41-.4,36.62-.52Z"/><path class="j" d="M731.66,866.54c-6.88-8.44-10.28-12.78-17.03-21.6-14.55-19.38-15.5-38.44-13.86-67.71,0-28.69,.38-60.47,6.12-107.26,11.87,.06,23.74,.12,35.61,.17,7.48,8.44,14.81,16.95,22.06,25.58-1.26,35.57-3.04,71.11-5.01,106.64-.39,6.87-.21,13.15,.66,18.71,1.7,.42,3.54,.56,5.47,.59,24.15,.38,31-27.13,31.59-46.42,1.42-34.97,2.78-69.96,3.19-104.97,11.51-.01,23.02-.04,34.52-.09,7.1,8.49,13.99,17.06,20.8,25.79-.55,34.96-1.54,69.91-2.56,104.86-1.14,43.17-21.41,87.86-70.46,87.35-18.79-.2-39.23-5.89-51.11-21.64Zm117.93-65.8c1.02-34.32,2.01-68.64,2.58-102.97-6.4-8.37-9.62-12.44-16.12-20.31-.38,34.49-1.37,68.96-2.47,103.43-1.78,44.34-22.4,86.28-70.36,84.04-12.75-.6-22.02-3.15-34.16-8.3,13.87,18.76,30.85,27.11,53.91,27.3,47.26,.38,64.06-42.62,66.62-83.19Zm-93.9,1.59c1.98-34.85,3.75-69.71,5.06-104.6-6.91-8.4-10.37-12.51-17.32-20.46-1.13,32.53-2.79,65.03-4.68,97.53-1.37,15.34,.56,38.38,17.33,45.02-.65-5.43-.75-11.17-.38-17.48Z"/><path class="j" d="M900.01,863.61c.69-41.47,1.94-82.93,2.97-124.39-7.86-.09-9.8-.11-16.28-.18-6.59-9.63-13.27-19.15-20.09-28.62,.21-13.49,.4-26.99,.41-40.48,38.86-.46,77.7-1.24,116.56-1.24,7.4,9.01,14.52,18.1,21.54,27.41,0,15.2-.06,30.4-.16,45.6-12.88-.48-25.77-.9-38.65-1.25-1.05,51.44-2.49,102.89-2.74,154.34-13.23-1.07-26.46-2.11-39.69-3.1-8.12-9.22-16.04-18.62-23.88-28.08Zm3.09-129.4c.21-9.05,.31-13.53,.48-22.3-10.32,0-20.64,0-30.96-.02,6.29,8.68,9.4,13.13,15.55,22.19,5.92,.05,7.72,.07,14.92,.13Zm56.46,155.9c.39-51.65,1.88-103.29,2.96-154.93,12.92,.31,25.84,.68,38.76,1.12,.1-12.78,.17-25.57,.18-38.35-6.65-8.99-9.98-13.33-16.73-21.63,0,12.08-.08,24.16-.21,36.24-13.51-.25-27.02-.43-40.53-.54-1.09,51.98-2.78,103.94-3.68,155.92-11.09-.83-22.17-1.63-33.26-2.41,6.06,7.38,12.21,14.71,18.46,21.92,11.35,.87,22.7,1.75,34.04,2.66Z"/><path class="j" d="M1047.21,872.01c-5.79-7.68-8.66-11.62-14.36-19.58-17.54-24.4-24.59-54.03-24.35-82.47,.33-40.1,20.29-103.95,72.45-103.51,22.9,.19,40.87,16.05,54.64,32.74,6.04,8.28,11.96,16.66,17.76,25.11,18.3,26.75,26.44,58.51,27.86,89.49,2.04,44.2-14.59,103.78-71.92,97.61-27.15-2.92-45.43-18.83-62.07-39.38Zm12.93-73.15c-.23-24.28,9.84-66.49,41.02-65.46,5.23,.17,9.91,2.3,14.3,5.91-5.71-13.31-18.35-25.73-32.53-26.44-28.02-1.4-37.06,36.79-37.65,58.99-.49,18.62,5.19,39.96,18.69,54.01-2.3-7.54-3.72-16.04-3.83-27.01Zm117.34,14.59c-.92-31.96-10.81-63.39-29.4-89.99,7.56,17.77,11.32,37.67,12.09,56.42,1.79,43.52-13.45,112.28-72.06,105.83-14.12-1.55-27.43-7.79-38.52-16.59,15.66,20.04,33.35,35.19,59.42,38.02,54.54,5.92,69.69-51.19,68.47-93.69Zm-53.48-36.21c-.06-9.15-1.16-21.74-4.88-28.45-3.35-6.06-11.08-9.68-17.76-9.9-29.31-.98-37.14,38.03-37.56,60.25-.2,10.71,1.38,22.23,6.44,32.07,4.92,3.42,10.45,5.69,16.2,6.1,30.64,2.19,37.69-37.03,37.55-60.07Z"/><path class="j" d="M1215.12,911.82c-8-10.04-15.71-20.32-23.21-30.74-1.12-18.7-2.14-37.4-3.12-56.11,13.06,12.03,28.08,24.77,46.45,26.59,8.3,.83,15.37-.68,19.77-4.11-5.72-3.71-11.87-7.46-17.13-10.94-16.27-10.62-25.12-25.94-34.44-42.53-4.04-7.06-6.05-10.57-10.07-17.55-7.12-12.46-9.38-25.81-10.61-39.71-3.18-35.79,16.66-67.7,55.27-66.89,16.32,.34,34.15,3.89,48.66,11.94,9.31,10.25,18.09,20.9,26.75,31.69-.11,19.95-.25,39.89-.41,59.84-11.7-11.67-28.33-22.33-44.62-23.51-9.27-.67-17.34,2.34-21.61,7.62,17.41,8.09,33.81,19.89,44.29,36.25,5.53,8.71,11,17.46,16.39,26.25,9.76,15.33,13.76,34.83,12.95,52.31-1.52,32.8-18.84,65.31-57.58,58.96-17.06-2.79-33.49-9.16-47.72-19.38Zm101.27-40.07c.35-16.29-3.37-33.4-11.95-47.56-2.49-3.98-3.74-5.96-6.26-9.93,1.41,6.56,2.42,13.97,2.24,22.16-.72,32.8-16.49,73-57.47,66.73-15.17-2.32-28.62-7.49-41.79-15.56,6.39,8.54,9.58,12.7,15.96,20.67,13.59,9.82,29.15,15.99,45.49,18.64,34.82,5.65,53.1-23.97,53.77-55.16Zm-56.44-34.8c-.57-10.52-11.49-17.53-19.96-22.08-9.63-5.18-18.69-10.81-27.65-17.19-1.67-1.33-2.5-1.99-4.17-3.32,8.58,14.48,16.33,27.45,30.75,36.68,6.05,4.06,13.08,8.07,19.5,12.52,1.02-2.03,1.66-4.17,1.52-6.61Zm48.85-121.32c-6.85-8.62-13.79-17.08-20.92-25.47,.33,15.97,.57,31.94,.79,47.91-12.15-10.34-28.27-18.78-44.25-19.95-10.44-.77-25.61,4.5-24.74,16.68,.76,10.51,13.69,16.52,22.56,20.37,4.68-8.19,17.29-12.24,26-11.4,15.54,1.5,28.25,9.72,40.43,19.18,.06-15.77,.11-31.55,.13-47.32Z"/></g></g></g></g></svg>